<?xml version="1.0" standalone="no"?>
<!DOCTYPE svg PUBLIC "-//W3C//DTD SVG 20010904//EN"
 "http://www.w3.org/TR/2001/REC-SVG-20010904/DTD/svg10.dtd">
<svg version="1.0" xmlns="http://www.w3.org/2000/svg"
 width="880.000000pt" height="828.000000pt" viewBox="0 0 880.000000 828.000000"
 preserveAspectRatio="xMidYMid meet">
<metadata>
Created by potrace 1.15, written by Peter Selinger 2001-2017
</metadata>
<g transform="translate(0.000000,828.000000) scale(0.100000,-0.100000)"
fill="#000000" stroke="none">
<path d="M4165 7873 c-1100 -53 -2058 -384 -2780 -962 -149 -119 -354 -322
-465 -461 -558 -698 -671 -1531 -311 -2285 447 -933 1545 -1632 2906 -1850
313 -50 534 -66 880 -66 370 0 623 21 943 76 79 14 148 25 155 25 7 0 22 -15
33 -33 46 -71 226 -288 341 -412 281 -302 694 -642 1138 -936 213 -141 375
-242 375 -233 0 3 -60 105 -134 227 -343 570 -503 907 -615 1297 -33 116 -91
376 -91 410 0 5 73 46 163 91 272 136 486 272 712 452 135 107 402 378 498
504 395 520 550 1085 457 1668 -154 963 -1013 1805 -2267 2224 -588 197 -1308
295 -1938 264z m580 -498 c1035 -101 1896 -404 2480 -871 412 -330 659 -711
756 -1164 20 -91 23 -136 23 -330 1 -229 -5 -291 -45 -455 -51 -209 -158 -451
-279 -635 -277 -420 -703 -759 -1275 -1016 l-160 -72 -3 -54 c-13 -203 111
-638 304 -1061 30 -66 52 -122 49 -125 -14 -14 -331 263 -540 472 -184 185
-312 335 -410 483 -31 46 -59 83 -63 83 -4 0 -76 -14 -161 -30 -391 -77 -851
-111 -1241 -92 -972 48 -1807 337 -2480 858 -133 103 -366 331 -464 454 -223
279 -379 601 -447 920 -20 90 -23 136 -23 330 -1 200 2 236 22 328 61 274 186
528 372 762 88 109 298 316 420 412 554 436 1370 739 2175 808 66 5 140 12
165 14 104 9 675 -4 825 -19z"/>
<path d="M6200 6035 c-414 -68 -714 -299 -831 -638 -77 -223 -79 -507 -6 -722
119 -349 393 -553 811 -605 122 -16 396 -8 521 14 94 17 283 62 322 77 l23 9
-2 512 -3 513 -362 3 -363 2 0 -175 0 -175 150 0 150 0 0 -200 0 -200 -27 -11
c-49 -20 -259 -23 -343 -5 -229 48 -393 212 -444 443 -20 90 -20 255 -1 348
36 172 144 312 297 385 107 52 195 70 340 70 147 0 249 -14 361 -50 62 -20 89
-25 92 -17 10 29 85 324 85 334 0 16 -92 49 -207 73 -129 28 -437 36 -563 15z"/>
<path d="M1850 5055 l0 -975 625 0 625 0 0 180 0 180 -405 0 -405 0 0 235 0
235 360 0 360 0 0 180 0 180 -360 0 -360 0 0 200 0 200 385 0 385 0 0 180 0
180 -605 0 -605 0 0 -975z"/>
<path d="M3400 5055 l0 -975 205 0 205 0 0 403 c0 221 -5 544 -10 716 -5 173
-8 316 -7 317 1 2 25 -47 52 -109 84 -191 193 -400 456 -872 l253 -455 233 0
233 0 0 975 0 975 -206 0 -207 0 6 -512 c5 -454 13 -649 32 -823 5 -46 1 -38
-53 85 -99 227 -214 446 -449 857 l-225 393 -259 0 -259 0 0 -975z"/>
</g>
</svg>
