<svg id="svg" version="1.1" xmlns="http://www.w3.org/2000/svg" xmlns:xlink="http://www.w3.org/1999/xlink" width="400" height="167.35537190082644" viewBox="0, 0, 400,167.35537190082644"><g id="svgg"><path id="path0" d="M214.728 8.870 L 214.728 14.226 220.251 14.226 L 225.774 14.226 225.774 8.870 L 225.774 3.515 220.251 3.515 L 214.728 3.515 214.728 8.870 M199.833 6.444 C 199.833 6.674,199.752 6.862,199.653 6.862 C 199.422 6.862,198.996 7.288,198.996 7.519 C 198.996 7.618,198.883 7.699,198.745 7.699 C 198.602 7.699,198.494 7.849,198.494 8.045 C 198.494 8.416,198.132 8.870,197.836 8.870 C 197.738 8.870,197.657 9.031,197.657 9.228 C 197.657 9.424,197.469 9.760,197.238 9.973 C 197.008 10.186,196.820 10.477,196.820 10.620 C 196.820 10.762,196.745 10.879,196.653 10.879 C 196.561 10.879,196.485 10.959,196.485 11.058 C 196.485 11.290,196.060 11.715,195.828 11.715 C 195.729 11.715,195.649 11.904,195.649 12.134 C 195.649 12.364,195.573 12.552,195.481 12.552 C 195.389 12.552,195.314 12.665,195.314 12.803 C 195.314 12.941,195.233 13.054,195.134 13.054 C 194.839 13.054,194.477 13.509,194.477 13.879 C 194.477 14.076,194.368 14.226,194.226 14.226 C 194.070 14.226,193.975 14.384,193.975 14.644 C 193.975 14.905,194.070 15.063,194.226 15.063 C 194.364 15.063,194.477 15.176,194.477 15.314 C 194.477 15.456,194.627 15.565,194.824 15.565 C 195.194 15.565,195.649 15.927,195.649 16.222 C 195.649 16.321,195.762 16.402,195.900 16.402 C 196.038 16.402,196.151 16.477,196.151 16.569 C 196.151 16.661,196.301 16.736,196.485 16.736 C 196.669 16.736,196.820 16.812,196.820 16.904 C 196.820 16.996,196.933 17.071,197.071 17.071 C 197.209 17.071,197.322 17.184,197.322 17.322 C 197.322 17.465,197.472 17.573,197.669 17.573 C 198.039 17.573,198.494 17.935,198.494 18.231 C 198.494 18.329,198.607 18.410,198.745 18.410 C 198.883 18.410,198.996 18.485,198.996 18.577 C 198.996 18.669,199.184 18.745,199.414 18.745 C 199.644 18.745,199.833 18.825,199.833 18.924 C 199.833 19.156,200.258 19.582,200.490 19.582 C 200.589 19.582,200.669 19.695,200.669 19.833 C 200.669 19.975,200.820 20.084,201.016 20.084 C 201.387 20.084,201.841 20.446,201.841 20.741 C 201.841 20.845,202.194 20.921,202.678 20.921 C 203.459 20.921,203.515 20.893,203.515 20.502 C 203.515 20.272,203.590 20.084,203.682 20.084 C 203.774 20.084,203.849 19.971,203.849 19.833 C 203.849 19.695,203.930 19.582,204.029 19.582 C 204.324 19.582,204.686 19.127,204.686 18.757 C 204.686 18.560,204.795 18.410,204.937 18.410 C 205.075 18.410,205.188 18.297,205.188 18.159 C 205.188 18.021,205.264 17.908,205.356 17.908 C 205.448 17.908,205.523 17.720,205.523 17.490 C 205.523 17.259,205.619 17.071,205.737 17.071 C 205.855 17.071,206.060 16.921,206.192 16.736 C 206.325 16.552,206.530 16.402,206.648 16.402 C 206.766 16.402,206.862 16.213,206.862 15.983 C 206.862 15.753,206.937 15.565,207.029 15.565 C 207.121 15.565,207.197 15.452,207.197 15.314 C 207.197 15.176,207.310 15.063,207.448 15.063 C 207.590 15.063,207.699 14.913,207.699 14.716 C 207.699 14.346,208.061 13.891,208.356 13.891 C 208.455 13.891,208.536 13.778,208.536 13.640 C 208.536 13.502,208.611 13.389,208.703 13.389 C 208.795 13.389,208.870 13.201,208.870 12.971 C 208.870 12.702,208.964 12.552,209.133 12.552 C 209.563 12.552,209.360 11.809,208.912 11.746 C 208.705 11.716,208.536 11.622,208.536 11.536 C 208.536 11.451,208.423 11.381,208.285 11.381 C 208.146 11.381,208.033 11.266,208.033 11.127 C 208.033 10.939,207.924 10.900,207.615 10.977 C 207.345 11.045,207.197 11.012,207.197 10.884 C 207.197 10.587,206.259 9.707,205.942 9.707 C 205.631 9.707,205.188 9.321,205.188 9.050 C 205.188 8.951,205.000 8.870,204.770 8.870 C 204.540 8.870,204.351 8.795,204.351 8.703 C 204.351 8.611,204.238 8.536,204.100 8.536 C 203.962 8.536,203.849 8.455,203.849 8.356 C 203.849 8.061,203.395 7.699,203.025 7.699 C 202.834 7.699,202.678 7.618,202.678 7.519 C 202.678 7.224,202.223 6.862,201.853 6.862 C 201.656 6.862,201.506 6.753,201.506 6.611 C 201.506 6.473,201.393 6.360,201.255 6.360 C 201.117 6.360,201.004 6.285,201.004 6.192 C 201.004 6.100,200.741 6.025,200.418 6.025 C 199.905 6.025,199.833 6.077,199.833 6.444 M173.389 24.351 L 173.389 29.958 178.912 29.958 L 184.435 29.958 184.435 24.351 L 184.435 18.745 178.912 18.745 L 173.389 18.745 173.389 24.351 M211.381 23.152 C 211.381 23.274,211.192 23.475,210.962 23.598 C 210.732 23.721,210.544 23.885,210.544 23.961 C 210.544 24.038,210.356 24.100,210.126 24.100 C 209.895 24.100,209.707 24.175,209.707 24.266 C 209.707 24.523,209.162 25.098,209.008 25.002 C 208.932 24.956,208.870 25.035,208.870 25.178 C 208.870 25.331,208.726 25.439,208.524 25.439 C 208.153 25.439,207.699 25.801,207.699 26.097 C 207.699 26.195,207.586 26.276,207.448 26.276 C 207.310 26.276,207.197 26.351,207.197 26.444 C 207.197 26.536,207.008 26.611,206.778 26.611 C 206.548 26.611,206.360 26.692,206.360 26.790 C 206.360 27.022,205.934 27.448,205.702 27.448 C 205.604 27.448,205.523 27.561,205.523 27.699 C 205.523 27.841,205.373 27.950,205.176 27.950 C 204.806 27.950,204.351 28.312,204.351 28.607 C 204.351 28.706,204.271 28.787,204.172 28.787 C 203.586 28.787,203.242 30.152,203.776 30.357 C 203.920 30.413,203.991 30.534,203.934 30.626 C 203.876 30.719,203.915 30.795,204.019 30.795 C 204.323 30.795,204.686 31.244,204.686 31.620 C 204.686 31.816,204.795 31.967,204.937 31.967 C 205.075 31.967,205.188 32.047,205.188 32.146 C 205.188 32.378,205.614 32.803,205.846 32.803 C 205.944 32.803,206.025 32.992,206.025 33.222 C 206.025 33.452,206.100 33.640,206.192 33.640 C 206.285 33.640,206.360 33.753,206.360 33.891 C 206.360 34.029,206.441 34.142,206.539 34.142 C 206.835 34.142,207.197 34.597,207.197 34.967 C 207.197 35.164,207.305 35.314,207.448 35.314 C 207.586 35.314,207.699 35.395,207.699 35.493 C 207.699 35.725,208.125 36.151,208.356 36.151 C 208.455 36.151,208.536 36.307,208.536 36.497 C 208.536 36.868,208.898 37.322,209.193 37.322 C 209.292 37.322,209.372 37.403,209.372 37.501 C 209.372 37.773,209.815 38.159,210.126 38.159 C 210.436 38.159,210.879 37.773,210.879 37.501 C 210.879 37.403,210.992 37.322,211.130 37.322 C 211.268 37.322,211.381 37.247,211.381 37.155 C 211.381 37.063,211.537 36.987,211.727 36.987 C 212.098 36.987,212.552 36.625,212.552 36.330 C 212.552 36.231,212.633 36.151,212.732 36.151 C 212.963 36.151,213.389 35.725,213.389 35.493 C 213.389 35.395,213.577 35.314,213.808 35.314 C 214.038 35.314,214.226 35.238,214.226 35.146 C 214.226 35.054,214.339 34.979,214.477 34.979 C 214.615 34.979,214.728 34.866,214.728 34.728 C 214.728 34.586,214.878 34.477,215.075 34.477 C 215.445 34.477,215.900 34.115,215.900 33.819 C 215.900 33.721,215.980 33.640,216.079 33.640 C 216.311 33.640,216.736 33.214,216.736 32.983 C 216.736 32.884,216.892 32.803,217.083 32.803 C 217.454 32.803,217.908 32.441,217.908 32.146 C 217.908 32.047,218.021 31.967,218.159 31.967 C 218.334 31.967,218.410 31.790,218.410 31.381 C 218.410 30.972,218.334 30.795,218.159 30.795 C 218.021 30.795,217.908 30.714,217.908 30.616 C 217.908 30.384,217.482 29.958,217.250 29.958 C 217.152 29.958,217.071 29.787,217.071 29.577 C 217.071 29.367,216.921 29.087,216.736 28.954 C 216.552 28.821,216.402 28.616,216.402 28.499 C 216.402 28.381,216.289 28.285,216.151 28.285 C 216.008 28.285,215.900 28.134,215.900 27.938 C 215.900 27.567,215.537 27.113,215.242 27.113 C 215.143 27.113,215.063 27.000,215.063 26.862 C 215.063 26.724,214.987 26.611,214.895 26.611 C 214.803 26.611,214.728 26.423,214.728 26.192 C 214.728 25.962,214.647 25.774,214.549 25.774 C 214.317 25.774,213.891 25.348,213.891 25.117 C 213.891 25.018,213.778 24.937,213.640 24.937 C 213.498 24.937,213.389 24.787,213.389 24.591 C 213.389 24.262,213.036 23.766,212.803 23.766 C 212.630 23.766,212.218 23.303,212.218 23.108 C 212.218 23.010,212.029 22.929,211.799 22.929 C 211.562 22.929,211.381 23.026,211.381 23.152 M173.389 37.238 L 173.389 42.845 178.912 42.845 L 184.435 42.845 184.435 37.238 L 184.435 31.632 178.912 31.632 L 173.389 31.632 173.389 37.238 M186.546 31.893 C 186.491 32.037,186.370 32.108,186.277 32.051 C 186.165 31.982,186.109 33.780,186.109 37.396 L 186.109 42.845 191.715 42.845 L 197.322 42.845 197.322 37.238 L 197.322 31.632 191.984 31.632 C 187.298 31.632,186.634 31.664,186.546 31.893 M173.389 50.209 L 173.389 55.565 178.912 55.565 L 184.435 55.565 184.435 50.209 L 184.435 44.854 178.912 44.854 L 173.389 44.854 173.389 50.209 M186.109 50.209 L 186.109 55.565 191.715 55.565 L 197.322 55.565 197.322 50.209 L 197.322 44.854 191.715 44.854 L 186.109 44.854 186.109 50.209 M199.331 50.209 L 199.331 55.565 204.686 55.565 L 210.042 55.565 210.042 50.209 L 210.042 44.854 204.686 44.854 L 199.331 44.854 199.331 50.209 M50.558 51.213 L 50.558 54.728 106.618 54.728 L 162.678 54.728 162.678 51.213 L 162.678 47.699 106.618 47.699 L 50.558 47.699 50.558 51.213 M236.653 51.213 L 236.653 54.728 292.636 54.728 L 348.619 54.728 348.619 51.213 L 348.619 47.699 292.636 47.699 L 236.653 47.699 236.653 51.213 M1.004 116.318 L 1.004 166.360 199.582 166.360 L 398.159 166.360 398.159 116.318 L 398.159 66.276 199.582 66.276 L 1.004 66.276 1.004 116.318 M391.464 116.318 L 391.464 159.331 199.582 159.331 L 7.699 159.331 7.699 116.318 L 7.699 73.305 199.582 73.305 L 391.464 73.305 391.464 116.318 M168.870 104.351 L 168.870 107.615 172.971 107.615 L 177.071 107.615 177.071 119.579 L 177.071 131.542 173.013 131.587 L 168.954 131.632 168.909 134.937 L 168.863 138.243 181.670 138.243 L 194.477 138.243 194.477 134.888 C 194.477 132.301,194.429 131.540,194.268 131.561 C 194.153 131.576,192.270 131.579,190.084 131.568 L 186.109 131.548 186.109 119.582 L 186.109 107.615 190.293 107.615 L 194.477 107.615 194.477 104.351 L 194.477 101.088 181.674 101.088 L 168.870 101.088 168.870 104.351 M204.351 119.665 L 204.351 138.243 208.703 138.243 L 213.054 138.243 213.054 132.469 C 213.054 128.731,213.113 126.695,213.222 126.695 C 213.314 126.695,213.389 126.582,213.389 126.444 C 213.389 126.305,213.470 126.192,213.568 126.192 C 213.800 126.192,214.226 125.767,214.226 125.535 C 214.226 125.436,214.339 125.356,214.477 125.356 C 214.619 125.356,214.728 125.206,214.728 125.009 C 214.728 124.648,215.088 124.184,215.368 124.184 C 215.456 124.184,215.570 124.077,215.620 123.946 C 215.752 123.603,216.402 123.817,216.402 124.204 C 216.402 124.377,216.477 124.519,216.569 124.519 C 216.661 124.519,216.736 124.707,216.736 124.937 C 216.736 125.167,216.812 125.356,216.904 125.356 C 216.996 125.356,217.071 125.469,217.071 125.607 C 217.071 125.745,217.184 125.858,217.322 125.858 C 217.478 125.858,217.573 126.016,217.573 126.276 C 217.573 126.506,217.649 126.695,217.741 126.695 C 217.833 126.695,217.908 126.883,217.908 127.113 C 217.908 127.373,218.003 127.531,218.159 127.531 C 218.301 127.531,218.410 127.681,218.410 127.878 C 218.410 128.249,218.772 128.703,219.068 128.703 C 219.166 128.703,219.247 128.891,219.247 129.121 C 219.247 129.351,219.322 129.540,219.414 129.540 C 219.506 129.540,219.582 129.728,219.582 129.958 C 219.582 130.219,219.676 130.377,219.833 130.377 C 219.975 130.377,220.084 130.527,220.084 130.723 C 220.084 131.094,220.446 131.548,220.741 131.548 C 220.840 131.548,220.921 131.736,220.921 131.967 C 220.921 132.197,220.996 132.385,221.088 132.385 C 221.180 132.385,221.255 132.573,221.255 132.803 C 221.255 133.064,221.350 133.222,221.506 133.222 C 221.644 133.222,221.757 133.335,221.757 133.473 C 221.757 133.611,221.833 133.724,221.925 133.724 C 222.017 133.724,222.092 133.912,222.092 134.142 C 222.092 134.403,222.187 134.561,222.343 134.561 C 222.499 134.561,222.594 134.719,222.594 134.979 C 222.594 135.209,222.669 135.397,222.762 135.397 C 222.854 135.397,222.929 135.586,222.929 135.816 C 222.929 136.046,223.010 136.234,223.108 136.234 C 223.399 136.234,223.766 136.686,223.766 137.045 C 223.766 137.228,223.844 137.404,223.940 137.436 C 224.037 137.468,224.128 137.663,224.143 137.869 L 224.172 138.243 229.324 138.243 L 234.477 138.243 234.477 137.657 C 234.477 137.335,234.402 137.071,234.310 137.071 C 234.218 137.071,234.142 136.958,234.142 136.820 C 234.142 136.682,234.029 136.569,233.891 136.569 C 233.749 136.569,233.640 136.419,233.640 136.222 C 233.640 135.852,233.278 135.397,232.983 135.397 C 232.884 135.397,232.803 135.209,232.803 134.979 C 232.803 134.749,232.728 134.561,232.636 134.561 C 232.544 134.561,232.469 134.372,232.469 134.142 C 232.469 133.882,232.374 133.724,232.218 133.724 C 232.079 133.724,231.967 133.611,231.967 133.473 C 231.967 133.335,231.891 133.222,231.799 133.222 C 231.707 133.222,231.632 133.033,231.632 132.803 C 231.632 132.573,231.551 132.385,231.452 132.385 C 231.157 132.385,230.795 131.931,230.795 131.560 C 230.795 131.363,230.686 131.213,230.544 131.213 C 230.394 131.213,230.293 131.059,230.293 130.832 C 230.293 130.622,230.142 130.342,229.958 130.209 C 229.774 130.077,229.623 129.796,229.623 129.586 C 229.623 129.359,229.522 129.205,229.372 129.205 C 229.234 129.205,229.121 129.092,229.121 128.954 C 229.121 128.816,229.046 128.703,228.954 128.703 C 228.862 128.703,228.787 128.515,228.787 128.285 C 228.787 128.024,228.692 127.866,228.536 127.866 C 228.393 127.866,228.285 127.716,228.285 127.519 C 228.285 127.149,227.922 126.695,227.627 126.695 C 227.528 126.695,227.448 126.506,227.448 126.276 C 227.448 126.046,227.372 125.858,227.280 125.858 C 227.188 125.858,227.113 125.745,227.113 125.607 C 227.113 125.469,227.000 125.356,226.862 125.356 C 226.706 125.356,226.611 125.198,226.611 124.937 C 226.611 124.707,226.536 124.519,226.444 124.519 C 226.351 124.519,226.276 124.368,226.276 124.184 C 226.276 123.998,226.165 123.849,226.025 123.849 C 225.887 123.849,225.774 123.736,225.774 123.598 C 225.774 123.460,225.699 123.347,225.607 123.347 C 225.515 123.347,225.439 123.159,225.439 122.929 C 225.439 122.699,225.359 122.510,225.260 122.510 C 224.965 122.510,224.603 122.056,224.603 121.686 C 224.603 121.489,224.494 121.339,224.351 121.339 C 224.195 121.339,224.100 121.181,224.100 120.921 C 224.100 120.690,224.025 120.502,223.933 120.502 C 223.841 120.502,223.766 120.389,223.766 120.251 C 223.766 120.113,223.653 120.000,223.515 120.000 C 223.358 120.000,223.264 119.842,223.264 119.582 C 223.264 119.351,223.188 119.163,223.096 119.163 C 223.004 119.163,222.929 119.007,222.929 118.816 C 222.929 118.446,222.567 117.992,222.271 117.992 C 222.173 117.992,222.092 117.810,222.092 117.587 C 222.092 117.365,222.006 117.154,221.902 117.119 C 221.636 117.031,222.049 116.398,222.544 116.132 C 222.756 116.019,222.929 115.826,222.929 115.704 C 222.929 115.581,223.004 115.481,223.096 115.481 C 223.188 115.481,223.264 115.293,223.264 115.063 C 223.264 114.833,223.344 114.644,223.443 114.644 C 223.675 114.644,224.100 114.219,224.100 113.987 C 224.100 113.888,224.181 113.808,224.280 113.808 C 224.575 113.808,224.937 113.353,224.937 112.983 C 224.937 112.786,225.046 112.636,225.188 112.636 C 225.326 112.636,225.439 112.555,225.439 112.457 C 225.439 112.225,225.865 111.799,226.097 111.799 C 226.195 111.799,226.276 111.686,226.276 111.548 C 226.276 111.410,226.351 111.297,226.444 111.297 C 226.536 111.297,226.611 111.109,226.611 110.879 C 226.611 110.649,226.707 110.460,226.825 110.460 C 226.943 110.460,227.148 110.310,227.280 110.126 C 227.413 109.941,227.618 109.791,227.736 109.791 C 227.853 109.791,227.950 109.603,227.950 109.372 C 227.950 109.142,228.025 108.954,228.117 108.954 C 228.209 108.954,228.285 108.841,228.285 108.703 C 228.285 108.565,228.365 108.452,228.464 108.452 C 228.696 108.452,229.121 108.026,229.121 107.794 C 229.121 107.696,229.234 107.615,229.372 107.615 C 229.522 107.615,229.623 107.461,229.623 107.234 C 229.623 107.024,229.774 106.744,229.958 106.611 C 230.142 106.478,230.293 106.273,230.293 106.156 C 230.293 106.038,230.374 105.941,230.472 105.941 C 230.768 105.941,231.130 105.487,231.130 105.117 C 231.130 104.920,231.238 104.770,231.381 104.770 C 231.519 104.770,231.632 104.689,231.632 104.591 C 231.632 104.396,232.044 103.933,232.218 103.933 C 232.451 103.933,232.803 103.436,232.803 103.108 C 232.803 102.912,232.912 102.762,233.054 102.762 C 233.192 102.762,233.305 102.681,233.305 102.582 C 233.305 102.350,233.731 101.925,233.963 101.925 C 234.062 101.925,234.142 101.736,234.142 101.506 L 234.142 101.088 228.954 101.088 C 223.818 101.088,223.766 101.091,223.766 101.435 C 223.766 101.805,223.404 102.259,223.108 102.259 C 223.010 102.259,222.929 102.372,222.929 102.510 C 222.929 102.649,222.854 102.762,222.762 102.762 C 222.669 102.762,222.594 102.950,222.594 103.180 C 222.594 103.410,222.498 103.598,222.380 103.598 C 222.262 103.598,222.057 103.749,221.925 103.933 C 221.792 104.117,221.587 104.268,221.469 104.268 C 221.352 104.268,221.255 104.456,221.255 104.686 C 221.255 104.916,221.180 105.105,221.088 105.105 C 220.996 105.105,220.921 105.218,220.921 105.356 C 220.921 105.494,220.808 105.607,220.669 105.607 C 220.527 105.607,220.418 105.757,220.418 105.953 C 220.418 106.324,220.056 106.778,219.761 106.778 C 219.662 106.778,219.582 106.891,219.582 107.029 C 219.582 107.167,219.506 107.280,219.414 107.280 C 219.322 107.280,219.247 107.469,219.247 107.699 C 219.247 107.929,219.166 108.117,219.068 108.117 C 218.772 108.117,218.410 108.571,218.410 108.942 C 218.410 109.139,218.301 109.289,218.159 109.289 C 218.021 109.289,217.908 109.369,217.908 109.468 C 217.908 109.700,217.482 110.126,217.250 110.126 C 217.152 110.126,217.071 110.314,217.071 110.544 C 217.071 110.774,217.009 110.962,216.932 110.962 C 216.856 110.962,216.692 111.151,216.569 111.381 C 216.446 111.611,216.245 111.799,216.122 111.799 C 216.000 111.799,215.900 111.955,215.900 112.146 C 215.900 112.516,215.537 112.971,215.242 112.971 C 215.143 112.971,215.063 113.084,215.063 113.222 C 215.063 113.360,214.987 113.473,214.895 113.473 C 214.803 113.473,214.728 113.661,214.728 113.891 C 214.728 114.121,214.647 114.310,214.549 114.310 C 214.253 114.310,213.891 114.764,213.891 115.134 C 213.891 115.331,213.783 115.481,213.640 115.481 C 213.502 115.481,213.389 115.594,213.389 115.732 C 213.389 115.870,213.314 115.983,213.222 115.983 C 213.113 115.983,213.054 113.389,213.054 108.536 L 213.054 101.088 208.703 101.088 L 204.351 101.088 204.351 119.665 " stroke="none" fill="#44346c" fill-rule="evenodd"></path><path id="path1" d="" stroke="none" fill="#48346c" fill-rule="evenodd"></path><path id="path2" d="" stroke="none" fill="#48346c" fill-rule="evenodd"></path><path id="path3" d="" stroke="none" fill="#48346c" fill-rule="evenodd"></path><path id="path4" d="" stroke="none" fill="#48346c" fill-rule="evenodd"></path></g></svg>